<svg width="10" height="12" viewBox="0 0 10 12" fill="none" xmlns="http://www.w3.org/2000/svg">
<path d="M5.00006 0.75C5.24527 0.75 5.44792 0.929552 5.48 1.16251L5.48442 1.22727L5.48417 9.61725L8.54742 6.5861C8.73616 6.39931 9.04284 6.39866 9.2324 6.58465C9.40472 6.75372 9.42094 7.01884 9.28065 7.20598L9.23387 7.25961L5.34355 11.1096L5.33335 11.119C5.32289 11.1288 5.31199 11.1381 5.30068 11.147L5.34355 11.1096C5.32481 11.1282 5.3049 11.1449 5.28406 11.1597C5.27097 11.1687 5.25738 11.1775 5.24334 11.1855C5.2121 11.2037 5.17941 11.2178 5.14579 11.2282C5.13394 11.2317 5.12184 11.235 5.10956 11.2378C5.10018 11.24 5.09066 11.2419 5.08109 11.2435C5.07072 11.2451 5.06035 11.2465 5.04988 11.2475C5.03937 11.2487 5.02862 11.2494 5.01787 11.2498C5.01191 11.2499 5.006 11.25 5.00006 11.25L4.98398 11.2499C4.97205 11.2495 4.96014 11.2486 4.94826 11.2474L5.00006 11.25C4.97241 11.25 4.94529 11.2477 4.9189 11.2433C4.90687 11.2414 4.8948 11.2389 4.88281 11.2359C4.87329 11.2336 4.86394 11.231 4.85471 11.2281C4.84374 11.2248 4.83269 11.2209 4.82177 11.2166C4.81049 11.2122 4.79947 11.2074 4.78867 11.2023C4.7804 11.1983 4.77188 11.194 4.76347 11.1893C4.74769 11.1805 4.73288 11.1712 4.71865 11.1612C4.71642 11.1596 4.71396 11.1579 4.71152 11.1561C4.6899 11.1402 4.67083 11.1237 4.65317 11.1058L0.766155 7.25964C0.577396 7.07287 0.578031 6.77067 0.767574 6.58467C0.939885 6.41558 1.209 6.40073 1.39832 6.53975L1.45255 6.58607L4.51525 9.61667L4.51571 1.22727C4.51571 0.963682 4.73256 0.75 5.00006 0.75Z" fill="#FF7CA3"/>
</svg>
