<svg width="24" height="27" viewBox="0 0 24 27" fill="none" xmlns="http://www.w3.org/2000/svg">
<g filter="url(#filter0_d)">
<path d="M17.7325 7.26564L17.8153 7.26677C18.1229 7.2922 18.3587 7.54759 18.375 7.855L18.3671 8.02641L18.105 11.2358L17.8301 14.3678C17.7719 14.993 17.7198 15.5204 17.6749 15.9355C17.5187 17.3823 16.5796 18.2769 15.1638 18.3034C12.9578 18.3441 10.8373 18.3437 8.7781 18.2992C7.40331 18.2703 6.47805 17.366 6.32462 15.9414L6.21858 14.8918L6.03328 12.8558L5.84347 10.6217L5.62643 7.93986C5.59946 7.59578 5.84959 7.29442 6.18512 7.26676C6.49269 7.2414 6.76525 7.45483 6.82932 7.7556L6.85426 8.0014L7.05805 10.5156L7.28057 13.1215C7.38038 14.2496 7.46695 15.1626 7.53622 15.804C7.62365 16.6158 8.05115 17.0336 8.80343 17.0494C10.8465 17.0936 12.9512 17.094 15.1417 17.0535C15.9398 17.0386 16.374 16.6249 16.4633 15.7978L16.5689 14.7538C16.5998 14.4321 16.6328 14.0769 16.6678 13.691L16.8905 11.1281L17.1588 7.83954C17.1836 7.52414 17.4327 7.28238 17.7325 7.26564ZM5.10949 5.82428C4.77288 5.82428 4.5 5.54445 4.5 5.19926C4.5 4.88283 4.72929 4.62133 5.02679 4.57994L5.10949 4.57423H7.76476C8.0803 4.57423 8.35654 4.36602 8.45535 4.06604L8.47953 3.9734L8.68587 2.92106C8.86759 2.2241 9.45767 1.72787 10.1492 1.6719L10.2799 1.66663H13.7199C14.4229 1.66663 15.0436 2.12186 15.2826 2.82528L15.3228 2.96003L15.5203 3.97315C15.5822 4.29056 15.8354 4.52762 16.1417 4.5681L16.2351 4.57423H18.8905C19.2271 4.57423 19.5 4.85406 19.5 5.19926C19.5 5.51568 19.2707 5.77719 18.9732 5.81857L18.8905 5.82428H5.10949ZM13.7199 2.91667H10.2799C10.1089 2.91667 9.95691 3.01931 9.89377 3.14831L9.87235 3.20499L9.67483 4.21861C9.65067 4.34233 9.61566 4.46146 9.57093 4.57506L14.429 4.57522C14.4011 4.50434 14.377 4.43132 14.3569 4.35636L14.325 4.21836L14.1364 3.24396C14.0923 3.07489 13.9561 2.95111 13.7918 2.92281L13.7199 2.91667Z" fill="#FF7CA3"/>
</g>
<defs>
<filter id="filter0_d" x="-2" y="0" width="28" height="28" filterUnits="userSpaceOnUse" color-interpolation-filters="sRGB">
<feFlood flood-opacity="0" result="BackgroundImageFix"/>
<feColorMatrix in="SourceAlpha" type="matrix" values="0 0 0 0 0 0 0 0 0 0 0 0 0 0 0 0 0 0 127 0" result="hardAlpha"/>
<feOffset dy="4"/>
<feGaussianBlur stdDeviation="2"/>
<feComposite in2="hardAlpha" operator="out"/>
<feColorMatrix type="matrix" values="0 0 0 0 0 0 0 0 0 0 0 0 0 0 0 0 0 0 0.25 0"/>
<feBlend mode="normal" in2="BackgroundImageFix" result="effect1_dropShadow"/>
<feBlend mode="normal" in="SourceGraphic" in2="effect1_dropShadow" result="shape"/>
</filter>
</defs>
</svg>
